# xmcd
#
# Track frame offsets: 
#        150
#        10789
#        19963
#        29529
#        40790
#        51152
#        62028
#        72727
#        83647
#        93349
#        106723
#        116835
#        126364
#        137389
#        148135
#        157316
#        169244
#        179860
#        189707
#        201098
#        212409
#        223226
#        235798
#        247414
#        259797
#        270641
#        281481
#        294800
#        307498
#        320045
#
# Disc length: 4444 seconds
#
# Revision: 0
# Processed by: cddbd v1.5.2PL0 Copyright (c) Steve Scherf et al.
# Submitted via: ExactAudioCopy v1.1
#
DISCID=de115a1e
DTITLE=Wade Ray - Wade Ray_Idaho Red (Gonna Shake... Bear Family)
DYEAR=2012
DGENRE=Instrumental
TTITLE0=Idaho Red
TTITLE1=Two Red, Red Lips
TTITLE2=Burning Desire
TTITLE3=I Need A Good Girl Bad
TTITLE4=No Mama - No Papa
TTITLE5=Are You Fer It?
TTITLE6=Cattin' Around
TTITLE7=Too Late To Dream
TTITLE8=Saturday Night
TTITLE9=The Fiddlin' Rag
TTITLE10=Easy Pickin's
TTITLE11=Call Me Up
TTITLE12=Don't Wait To Baby Your Baby
TTITLE13=Rosetta
TTITLE14=All Or Nothin' Man
TTITLE15=Excuse Me
TTITLE16=Dipsey Doodle
TTITLE17=That Love Makin' Melody
TTITLE18=Bill Bailey
TTITLE19=Perdido
TTITLE20=June-Bug Jitters
TTITLE21=Just Like Talking Candy From A Baby
TTITLE22=It's All Your Fault
TTITLE23=Any Old Time
TTITLE24=Little Green Valley
TTITLE25=Down Home Rag
TTITLE26=There's No Fool Like A Young Fool
TTITLE27=Did I Do Wrong
TTITLE28=Walk Softly
TTITLE29=Let Me Go, Devil
EXTD=
EXTT0=
EXTT1=
EXTT2=
EXTT3=
EXTT4=
EXTT5=
EXTT6=
EXTT7=
EXTT8=
EXTT9=
EXTT10=
EXTT11=
EXTT12=
EXTT13=
EXTT14=
EXTT15=
EXTT16=
EXTT17=
EXTT18=
EXTT19=
EXTT20=
EXTT21=
EXTT22=
EXTT23=
EXTT24=
EXTT25=
EXTT26=
EXTT27=
EXTT28=
EXTT29=
PLAYORDER=
